HIERARCHY
ROOT Hips
{
    OFFSET 0.000 95.729 0.000
    CHANNELS 6 Xposition Yposition Zposition Yrotation Xrotation Zrotation
    JOINT RightUpLeg
    {
        OFFSET -9.625 -1.639 0.000
        CHANNELS 3 Yrotation Xrotation Zrotation
        JOINT RightLeg
        {
            OFFSET 0.000 -43.120 0.000
            CHANNELS 3 Yrotation Xrotation Zrotation
            JOINT RightFoot
            {
                OFFSET 0.000 -43.120 0.000
                CHANNELS 3 Yrotation Xrotation Zrotation
                End Site
                {
                    OFFSET 0.000 -7.850 17.850
                }
            }
        }
    }
    JOINT LeftUpLeg
    {
        OFFSET 9.625 -1.639 0.000
        CHANNELS 3 Yrotation Xrotation Zrotation
        JOINT LeftLeg
        {
            OFFSET 0.000 -43.120 0.000
            CHANNELS 3 Yrotation Xrotation Zrotation
            JOINT LeftFoot
            {
                OFFSET 0.000 -43.120 0.000
                CHANNELS 3 Yrotation Xrotation Zrotation
                End Site
                {
                    OFFSET 0.000 -7.850 17.850
                }
            }
        }
    }
    JOINT Spine
    {
        OFFSET 0.000 14.755 0.000
        CHANNELS 3 Yrotation Xrotation Zrotation
        JOINT Spine1
        {
            OFFSET 0.000 10.023 0.000
            CHANNELS 3 Yrotation Xrotation Zrotation
            JOINT Spine2
            {
                OFFSET 0.000 10.437 0.000
                CHANNELS 3 Yrotation Xrotation Zrotation
                JOINT Spine3
                {
                    OFFSET 0.000 10.023 0.000
                    CHANNELS 3 Yrotation Xrotation Zrotation
                    JOINT Neck
                    {
                        OFFSET 0.000 10.713 0.000
                        CHANNELS 3 Yrotation Xrotation Zrotation
                        JOINT Head
                        {
                            OFFSET 0.000 9.720 0.000
                            CHANNELS 3 Yrotation Xrotation Zrotation
                            End Site
                            {
                                OFFSET 0.000 16.450 0.000
                            }
                        }
                    }
                    JOINT RightShoulder
                    {
                        OFFSET -3.275 7.142 0.000
                        CHANNELS 3 Yrotation Xrotation Zrotation
                        JOINT RightArm
                        {
                            OFFSET -13.100 0.000 0.000
                            CHANNELS 3 Yrotation Xrotation Zrotation
                            JOINT RightForeArm
                            {
                                OFFSET -27.250 0.000 0.000
                                CHANNELS 3 Yrotation Xrotation Zrotation
                                JOINT RightHand
                                {
                                    OFFSET -26.750 0.000 0.000
                                    CHANNELS 3 Yrotation Xrotation Zrotation
                                    JOINT RightHandThumb1
                                    {
                                        OFFSET -2.560 0.196 3.210
                                        CHANNELS 3 Yrotation Xrotation Zrotation
                                        JOINT RightHandThumb2
                                        {
                                            OFFSET -3.788 0.000 0.000
                                            CHANNELS 3 Yrotation Xrotation Zrotation
                                            JOINT RightHandThumb3
                                            {
                                                OFFSET -2.631 0.000 0.000
                                                CHANNELS 3 Yrotation Xrotation Zrotation
                                                End Site
                                                {
                                                    OFFSET -2.256 0.000 0.000
                                                }
                                            }
                                        }
                                    }
                                    JOINT RightInHandIndex
                                    {
                                        OFFSET -3.316 0.523 2.035
                                        CHANNELS 3 Yrotation Xrotation Zrotation
                                        JOINT RightHandIndex1
                                        {
                                            OFFSET -5.366 -0.094 1.028
                                            CHANNELS 3 Yrotation Xrotation Zrotation
                                            JOINT RightHandIndex2
                                            {
                                                OFFSET -3.723 0.000 0.000
                                                CHANNELS 3 Yrotation Xrotation Zrotation
                                                JOINT RightHandIndex3
                                                {
                                                    OFFSET -2.111 0.000 0.000
                                                    CHANNELS 3 Yrotation Xrotation Zrotation
                                                    End Site
                                                    {
                                                        OFFSET -1.857 0.000 0.000
                                                    }
                                                }
                                            }
                                        }
                                    }
                                    JOINT RightInHandMiddle
                                    {
                                        OFFSET -3.479 0.532 0.778
                                        CHANNELS 3 Yrotation Xrotation Zrotation
                                        JOINT RightHandMiddle1
                                        {
                                            OFFSET -5.322 -0.086 0.323
                                            CHANNELS 3 Yrotation Xrotation Zrotation
                                            JOINT RightHandMiddle2
                                            {
                                                OFFSET -4.062 0.000 0.000
                                                CHANNELS 3 Yrotation Xrotation Zrotation
                                                JOINT RightHandMiddle3
                                                {
                                                    OFFSET -2.547 0.000 0.000
                                                    CHANNELS 3 Yrotation Xrotation Zrotation
                                                    End Site
                                                    {
                                                        OFFSET -2.031 0.000 0.000
                                                    }
                                                }
                                            }
                                        }
                                    }
                                    JOINT RightInHandRing
                                    {
                                        OFFSET -3.461 0.553 -0.133
                                        CHANNELS 3 Yrotation Xrotation Zrotation
                                        JOINT RightHandRing1
                                        {
                                            OFFSET -4.767 -0.023 -0.493
                                            CHANNELS 3 Yrotation Xrotation Zrotation
                                            JOINT RightHandRing2
                                            {
                                                OFFSET -3.541 0.000 0.000
                                                CHANNELS 3 Yrotation Xrotation Zrotation
                                                JOINT RightHandRing3
                                                {
                                                    OFFSET -2.456 0.000 0.000
                                                    CHANNELS 3 Yrotation Xrotation Zrotation
                                                    End Site
                                                    {
                                                        OFFSET -1.910 0.000 0.000
                                                    }
                                                }
                                            }
                                        }
                                    }
                                    JOINT RightInHandPinky
                                    {
                                        OFFSET -3.251 0.483 -1.236
                                        CHANNELS 3 Yrotation Xrotation Zrotation
                                        JOINT RightHandPinky1
                                        {
                                            OFFSET -4.259 -0.023 -1.122
                                            CHANNELS 3 Yrotation Xrotation Zrotation
                                            JOINT RightHandPinky2
                                            {
                                                OFFSET -2.835 0.000 0.000
                                                CHANNELS 3 Yrotation Xrotation Zrotation
                                                JOINT RightHandPinky3
                                                {
                                                    OFFSET -1.792 0.000 0.000
                                                    CHANNELS 3 Yrotation Xrotation Zrotation
                                                    End Site
                                                    {
                                                        OFFSET -1.692 0.000 0.000
                                                    }
                                                }
                                            }
                                        }
                                    }
                                }
                            }
                        }
                    }
                    JOINT LeftShoulder
                    {
                        OFFSET 3.275 7.142 0.000
                        CHANNELS 3 Yrotation Xrotation Zrotation
                        JOINT LeftArm
                        {
                            OFFSET 13.100 0.000 0.000
                            CHANNELS 3 Yrotation Xrotation Zrotation
                            JOINT LeftForeArm
                            {
                                OFFSET 27.250 0.000 0.000
                                CHANNELS 3 Yrotation Xrotation Zrotation
                                JOINT LeftHand
                                {
                                    OFFSET 26.750 0.000 0.000
                                    CHANNELS 3 Yrotation Xrotation Zrotation
                                    JOINT LeftHandThumb1
                                    {
                                        OFFSET 2.560 0.196 3.210
                                        CHANNELS 3 Yrotation Xrotation Zrotation
                                        JOINT LeftHandThumb2
                                        {
                                            OFFSET 3.788 0.000 0.000
                                            CHANNELS 3 Yrotation Xrotation Zrotation
                                            JOINT LeftHandThumb3
                                            {
                                                OFFSET 2.631 0.000 0.000
                                                CHANNELS 3 Yrotation Xrotation Zrotation
                                                End Site
                                                {
                                                    OFFSET 2.256 0.000 0.000
                                                }
                                            }
                                        }
                                    }
                                    JOINT LeftInHandIndex
                                    {
                                        OFFSET 3.316 0.523 2.035
                                        CHANNELS 3 Yrotation Xrotation Zrotation
                                        JOINT LeftHandIndex1
                                        {
                                            OFFSET 5.366 -0.094 1.028
                                            CHANNELS 3 Yrotation Xrotation Zrotation
                                            JOINT LeftHandIndex2
                                            {
                                                OFFSET 3.723 0.000 0.000
                                                CHANNELS 3 Yrotation Xrotation Zrotation
                                                JOINT LeftHandIndex3
                                                {
                                                    OFFSET 2.111 0.000 0.000
                                                    CHANNELS 3 Yrotation Xrotation Zrotation
                                                    End Site
                                                    {
                                                        OFFSET 1.857 0.000 0.000
                                                    }
                                                }
                                            }
                                        }
                                    }
                                    JOINT LeftInHandMiddle
                                    {
                                        OFFSET 3.479 0.532 0.778
                                        CHANNELS 3 Yrotation Xrotation Zrotation
                                        JOINT LeftHandMiddle1
                                        {
                                            OFFSET 5.322 -0.086 0.323
                                            CHANNELS 3 Yrotation Xrotation Zrotation
                                            JOINT LeftHandMiddle2
                                            {
                                                OFFSET 4.062 0.000 0.000
                                                CHANNELS 3 Yrotation Xrotation Zrotation
                                                JOINT LeftHandMiddle3
                                                {
                                                    OFFSET 2.547 0.000 0.000
                                                    CHANNELS 3 Yrotation Xrotation Zrotation
                                                    End Site
                                                    {
                                                        OFFSET 2.031 0.000 0.000
                                                    }
                                                }
                                            }
                                        }
                                    }
                                    JOINT LeftInHandRing
                                    {
                                        OFFSET 3.461 0.553 -0.133
                                        CHANNELS 3 Yrotation Xrotation Zrotation
                                        JOINT LeftHandRing1
                                        {
                                            OFFSET 4.767 -0.023 -0.493
                                            CHANNELS 3 Yrotation Xrotation Zrotation
                                            JOINT LeftHandRing2
                                            {
                                                OFFSET 3.541 0.000 0.000
                                                CHANNELS 3 Yrotation Xrotation Zrotation
                                                JOINT LeftHandRing3
                                                {
                                                    OFFSET 2.456 0.000 0.000
                                                    CHANNELS 3 Yrotation Xrotation Zrotation
                                                    End Site
                                                    {
                                                        OFFSET 1.910 0.000 0.000
                                                    }
                                                }
                                            }
                                        }
                                    }
                                    JOINT LeftInHandPinky
                                    {
                                        OFFSET 3.251 0.483 -1.236
                                        CHANNELS 3 Yrotation Xrotation Zrotation
                                        JOINT LeftHandPinky1
                                        {
                                            OFFSET 4.259 -0.023 -1.122
                                            CHANNELS 3 Yrotation Xrotation Zrotation
                                            JOINT LeftHandPinky2
                                            {
                                                OFFSET 2.835 0.000 0.000
                                                CHANNELS 3 Yrotation Xrotation Zrotation
                                                JOINT LeftHandPinky3
                                                {
                                                    OFFSET 1.792 0.000 0.000
                                                    CHANNELS 3 Yrotation Xrotation Zrotation
                                                    End Site
                                                    {
                                                        OFFSET 1.692 0.000 0.000
                                                    }
                                                }
                                            }
                                        }
                                    }
                                }
                            }
                        }
                    }
                }
            }
        }
    }
}
MOTION
Frames: 4
Frame Time: 0.008
92.51 93.03 -34.08 -67.56 -2.24 -0.24 13.02 8.74 -1.78 0.00 30.78 -0.00 -3.86 -12.14 10.15 9.33 -30.91 -3.28 0.00 27.80 0.00 -17.67 -2.17 -0.74 18.14 5.97 -0.84 4.56 1.41 -0.40 7.34 2.31 -0.58 -0.54 -0.16 0.10 -0.54 -0.16 0.10 -9.87 -2.57 2.07 -1.33 -6.30 10.59 23.34 -31.86 47.46 33.67 -13.82 0.81 2.73 -0.17 -1.83 21.86 -0.00 30.00 -10.00 -0.00 0.00 -10.00 -0.00 0.00 0.00 -0.00 0.00 2.55 -0.00 20.00 0.00 -0.00 24.00 0.00 -0.00 20.00 0.00 -0.00 0.00 0.00 -0.00 20.00 0.00 -0.00 24.00 0.00 -0.00 20.00 0.00 -0.00 0.00 -3.00 -0.00 20.00 0.00 -0.00 24.00 0.00 -0.00 20.00 0.00 -0.00 0.00 -8.83 -0.00 20.00 0.00 -0.00 24.00 0.00 -0.00 20.00 5.84 -1.64 -5.46 -0.05 31.45 -85.20 10.96 2.13 5.95 -7.99 2.70 -23.52 -21.86 -0.00 -30.00 10.00 -0.00 0.00 10.00 -0.00 0.00 0.00 -0.00 0.00 -2.55 -0.00 -20.00 0.00 -0.00 -24.00 0.00 -0.00 -20.00 0.00 -0.00 0.00 0.00 -0.00 -20.00 0.00 -0.00 -24.00 0.00 -0.00 -20.00 0.00 -0.00 0.00 3.00 -0.00 -20.00 0.00 -0.00 -24.00 0.00 -0.00 -20.00 0.00 -0.00 0.00 8.83 -0.00 -20.00 0.00 -0.00 -24.00 0.00 -0.00 -20.00 
91.45 92.97 -33.13 -67.50 -2.04 -0.06 12.56 8.75 -2.33 0.00 31.66 -0.00 -3.12 -10.59 10.08 9.63 -30.04 -3.46 0.00 27.18 0.00 -17.22 -1.46 -1.29 18.16 5.69 -0.98 4.57 1.35 -0.43 7.35 2.22 -0.63 -0.55 -0.15 0.10 -0.55 -0.15 0.10 -9.99 -2.46 2.09 -1.75 -6.01 10.79 22.98 -31.51 47.88 33.37 -13.82 1.09 2.73 0.01 -1.84 21.86 -0.00 30.00 -10.00 -0.00 0.00 -10.00 -0.00 0.00 0.00 -0.00 0.00 2.55 -0.00 20.00 0.00 -0.00 24.00 0.00 -0.00 20.00 0.00 -0.00 0.00 0.00 -0.00 20.00 0.00 -0.00 24.00 0.00 -0.00 20.00 0.00 -0.00 0.00 -3.00 -0.00 20.00 0.00 -0.00 24.00 0.00 -0.00 20.00 0.00 -0.00 0.00 -8.83 -0.00 20.00 0.00 -0.00 24.00 0.00 -0.00 20.00 5.72 -1.64 -5.61 -0.03 31.43 -85.08 11.14 1.79 6.02 -7.88 2.54 -23.48 -21.86 -0.00 -30.00 10.00 -0.00 0.00 10.00 -0.00 0.00 0.00 -0.00 0.00 -2.55 -0.00 -20.00 0.00 -0.00 -24.00 0.00 -0.00 -20.00 0.00 -0.00 0.00 0.00 -0.00 -20.00 0.00 -0.00 -24.00 0.00 -0.00 -20.00 0.00 -0.00 0.00 3.00 -0.00 -20.00 0.00 -0.00 -24.00 0.00 -0.00 -20.00 0.00 -0.00 0.00 8.83 -0.00 -20.00 0.00 -0.00 -24.00 0.00 -0.00 -20.00 
90.39 92.90 -32.17 -67.47 -1.97 0.21 12.10 8.76 -2.96 0.00 32.74 0.00 -2.37 -8.83 9.96 10.32 -29.51 -3.85 0.00 27.31 0.00 -16.75 -0.42 -1.64 18.21 5.49 -1.15 4.58 1.31 -0.46 7.37 2.16 -0.69 -0.55 -0.15 0.10 -0.56 -0.15 0.10 -10.12 -2.41 2.10 -2.17 -5.75 10.96 22.43 -31.03 48.46 32.96 -13.81 1.45 2.79 0.24 -1.90 21.86 -0.00 30.00 -10.00 -0.00 0.00 -10.00 -0.00 0.00 0.00 -0.00 0.00 2.55 -0.00 20.00 0.00 -0.00 24.00 0.00 -0.00 20.00 0.00 -0.00 0.00 0.00 -0.00 20.00 0.00 -0.00 24.00 0.00 -0.00 20.00 0.00 -0.00 0.00 -3.00 -0.00 20.00 0.00 -0.00 24.00 0.00 -0.00 20.00 0.00 -0.00 0.00 -8.83 -0.00 20.00 0.00 -0.00 24.00 0.00 -0.00 20.00 5.60 -1.31 -5.54 -0.37 31.01 -85.26 11.29 1.41 6.07 -7.73 2.33 -23.32 -21.86 -0.00 -30.00 10.00 -0.00 0.00 10.00 -0.00 0.00 0.00 -0.00 0.00 -2.55 -0.00 -20.00 0.00 -0.00 -24.00 0.00 -0.00 -20.00 0.00 -0.00 0.00 0.00 -0.00 -20.00 0.00 -0.00 -24.00 0.00 -0.00 -20.00 0.00 -0.00 0.00 3.00 -0.00 -20.00 0.00 -0.00 -24.00 0.00 -0.00 -20.00 0.00 -0.00 0.00 8.83 -0.00 -20.00 0.00 -0.00 -24.00 0.00 -0.00 -20.00 
89.34 92.79 -31.16 -67.44 -1.99 0.50 11.57 8.72 -3.65 -0.00 33.99 -0.00 -1.61 -6.85 9.78 11.03 -29.17 -4.37 0.00 27.86 0.00 -15.86 0.40 -2.33 18.22 5.42 -1.33 4.58 1.30 -0.50 7.37 2.15 -0.76 -0.56 -0.16 0.11 -0.56 -0.15 0.11 -10.19 -2.54 2.14 -2.51 -5.66 11.12 21.81 -30.43 49.13 32.60 -13.78 1.79 2.75 0.45 -1.95 21.86 -0.00 30.00 -10.00 -0.00 0.00 -10.00 -0.00 0.00 0.00 -0.00 0.00 2.55 -0.00 20.00 0.00 -0.00 24.00 0.00 -0.00 20.00 0.00 -0.00 0.00 0.00 -0.00 20.00 0.00 -0.00 24.00 0.00 -0.00 20.00 0.00 -0.00 0.00 -3.00 -0.00 20.00 0.00 -0.00 24.00 0.00 -0.00 20.00 0.00 -0.00 0.00 -8.83 -0.00 20.00 0.00 -0.00 24.00 0.00 -0.00 20.00 5.53 -1.10 -5.45 -0.84 30.51 -85.44 11.39 1.02 6.07 -7.57 2.15 -23.06 -21.86 -0.00 -30.00 10.00 -0.00 0.00 10.00 -0.00 0.00 0.00 -0.00 0.00 -2.55 -0.00 -20.00 0.00 -0.00 -24.00 0.00 -0.00 -20.00 0.00 -0.00 0.00 0.00 -0.00 -20.00 0.00 -0.00 -24.00 0.00 -0.00 -20.00 0.00 -0.00 0.00 3.00 -0.00 -20.00 0.00 -0.00 -24.00 0.00 -0.00 -20.00 0.00 -0.00 0.00 8.83 -0.00 -20.00 0.00 -0.00 -24.00 0.00 -0.00 -20.00 
